#!OML:ASF F:\VICON\USERDATA\INSTALL\rory3\rory3.ASF
:FULLY-SPECIFIED
:DEGREES
2913
root 1.19304 17.4839 3.01214 3.09718 23.7413 -10.6852
lowerback 7.57001 4.03496 1.09695
upperback -0.885787 5.2668 -4.68963
thorax -4.61856 2.53116 -6.111
lowerneck -23.668 -13.4132 -12.8943
upperneck 3.70139 -15.9266 15.5726
head 7.21244 -6.68671 4.8707
rclavicle -4.77083e-014 3.18055e-014
rhumerus 73.0234 -26.6287 -35.3849
rradius 37.7204
rwrist 21.9371
rhand -58.408 3.37324
rfingers 7.12502
rthumb -30.635 -24.0972
lclavicle -4.77083e-014 3.18055e-014
lhumerus -41.023 9.13016 57.7093
lradius 46.4623
lwrist -6.73495
lhand -18.5248 19.6269
lfingers 7.12502
lthumb 7.76383 409.464
rfemur -4.04663 -5.17259 18.0101
rtibia 17.7656
rfoot -22.8626 -20.0325
rtoes 3.03955
lfemur -26.1712 -0.125997 -5.59649
ltibia 41.7282
lfoot -20.0375 -5.35102
ltoes -18.825
2914
root 1.18403 17.4893 3.0138 3.18731 23.8878 -10.8344
lowerback 7.48333 4.04007 1.12652
upperback -0.865162 5.27614 -4.74479
thorax -4.5393 2.53732 -6.17735
lowerneck -23.6911 -13.479 -12.7396
upperneck 3.59107 -16.033 15.5048
head 7.17424 -6.7409 4.80671
rclavicle 6.59965e-014 -1.90833e-014
rhumerus 73.1942 -26.4347 -34.9168
rradius 37.7978
rwrist 22.8979
rhand -58.4207 3.00067
rfingers 7.12502
rthumb -30.6471 -24.4675
lclavicle 6.59965e-014 -1.90833e-014
lhumerus -40.7762 9.1403 57.7428
lradius 46.39
lwrist -6.82906
lhand -18.5134 19.462
lfingers 7.12502
lthumb 7.77479 409.299
rfemur -4.10865 -5.27211 18.2112
rtibia 17.5966
rfoot -22.7873 -20.0669
rtoes 3.11251
lfemur -26.3682 -0.0604988 -5.42313
ltibia 41.7043
lfoot -20.0541 -5.47892
ltoes -18.7751
2915
root 1.17405 17.4912 3.01564 3.20034 24.048 -11.049
lowerback 7.2096 3.98789 1.13442
upperback -0.637992 5.21988 -4.68177
thorax -4.15874 2.52359 -6.06911
lowerneck -23.9239 -13.534 -12.7358
upperneck 3.39164 -16.0649 15.608
head 7.15881 -6.73973 4.82875
rclavicle -6.48038e-014 -1.59028e-014
rhumerus 73.7771 -26.3436 -34.5529
rradius 37.8616
rwrist 24.0231
rhand -58.2268 1.10509
rfingers 7.12502
rthumb -30.4622 -26.3975
lclavicle -6.48038e-014 -1.59028e-014
lhumerus -40.4218 9.53101 57.8734
lradius 46.3908
lwrist -6.91464
lhand -18.4788 19.845
lfingers 7.12502
lthumb 7.80818 409.681
rfemur -4.14158 -5.36515 18.4718
rtibia 17.4684
rfoot -22.8386 -20.0521
rtoes 3.47679
lfemur -26.5535 -0.027713 -5.1782
ltibia 41.6523
lfoot -20.2755 -5.41688
ltoes -20.2661
2916
root 1.15968 17.4949 3.01873 3.22758 24.1334 -11.123
lowerback 6.82811 3.94416 0.919967
upperback -0.299627 5.16067 -4.63159
thorax -3.62132 2.51749 -5.83418
lowerneck -24.3095 -13.5822 -12.7887
upperneck 3.26052 -16.0768 15.8223
head 7.20292 -6.71144 4.89313
rclavicle -6.12257e-014 3.18055e-014
rhumerus 74.482 -26.3219 -34.3052
rradius 37.84
rwrist 25.0579
rhand -58.1575 0.695293
rfingers 7.12502
rthumb -30.3961 -26.8195
lclavicle -6.12257e-014 3.18055e-014
lhumerus -40.0488 10.0386 57.9856
lradius 46.491
lwrist -6.9959
lhand -18.6187 20.0353
lfingers 7.12502
lthumb 7.6732 409.876
rfemur -4.17445 -5.23243 18.6124
rtibia 17.4205
rfoot -23.071 -20.0659
rtoes 4.36981
lfemur -26.6349 0.0185544 -5.0553
ltibia 41.5555
lfoot -20.3124 -5.43552
ltoes -20.9908
2917
root 1.14294 17.4994 3.01906 3.23361 24.1535 -11.1378
lowerback 6.89066 3.94691 0.698589
upperback -0.23941 5.14673 -4.62625
thorax -3.61508 2.51527 -5.70508
lowerneck -24.3629 -13.6041 -12.8724
upperneck 3.22339 -16.0855 15.9309
head 7.21871 -6.70622 4.93784
rclavicle -3.33958e-014 7.31528e-014
rhumerus 74.9845 -26.0064 -34.2289
rradius 37.8112
rwrist 26.21
rhand -57.7837 0.445261
rfingers 7.12502
rthumb -30.0395 -27.1349
lclavicle -3.33958e-014 7.31528e-014
lhumerus -40.0714 10.172 58.0403
lradius 46.6669
lwrist -7.00013
lhand -18.6818 20.0113
lfingers 7.12502
lthumb 7.61229 409.854
rfemur -4.18141 -5.00132 18.698
rtibia 17.3873
rfoot -23.3615 -20.1068
rtoes 5.08658
lfemur -26.6259 0.0713676 -4.99156
ltibia 41.4539
lfoot -20.2574 -5.47667
ltoes -21.0883
